<mxfile host="app.diagrams.net" modified="2022-03-02T02:16:23.363Z" agent="5.0 (Windows NT 10.0; Win64; x64) AppleWebKit/537.36 (KHTML, like Gecko) Chrome/98.0.4758.102 Safari/537.36 Edg/98.0.1108.62" etag="oEzKIHsvQOB5f12lCjyT" version="15.1.4" type="github">
  <diagram id="tAGdXD4nr1ELoi8lUGsf" name="Page-1">
    <mxGraphModel dx="782" dy="460" grid="1" gridSize="10" guides="1" tooltips="1" connect="1" arrows="1" fold="1" page="1" pageScale="1" pageWidth="850" pageHeight="1100" math="0" shadow="0">
      <root>
        <mxCell id="0" />
        <mxCell id="1" parent="0" />
        <mxCell id="AGV1Jh3pytT3GpXQ7XIj-1" value="" style="rounded=0;whiteSpace=wrap;html=1;" vertex="1" parent="1">
          <mxGeometry x="330" y="80" width="120" height="210" as="geometry" />
        </mxCell>
        <mxCell id="AGV1Jh3pytT3GpXQ7XIj-2" value="Self-test" style="text;html=1;strokeColor=none;fillColor=none;align=center;verticalAlign=middle;whiteSpace=wrap;rounded=0;" vertex="1" parent="1">
          <mxGeometry x="365" y="50" width="50" height="20" as="geometry" />
        </mxCell>
        <mxCell id="AGV1Jh3pytT3GpXQ7XIj-5" value="Review stored data" style="ellipse;whiteSpace=wrap;html=1;" vertex="1" parent="1">
          <mxGeometry x="340" y="90" width="100" height="50" as="geometry" />
        </mxCell>
        <mxCell id="AGV1Jh3pytT3GpXQ7XIj-6" value="Manager" style="shape=umlActor;verticalLabelPosition=bottom;verticalAlign=top;html=1;outlineConnect=0;" vertex="1" parent="1">
          <mxGeometry x="160" y="80" width="30" height="60" as="geometry" />
        </mxCell>
        <mxCell id="AGV1Jh3pytT3GpXQ7XIj-7" value="Supervisor" style="shape=umlActor;verticalLabelPosition=bottom;verticalAlign=top;html=1;outlineConnect=0;" vertex="1" parent="1">
          <mxGeometry x="160" y="210" width="30" height="60" as="geometry" />
        </mxCell>
        <mxCell id="AGV1Jh3pytT3GpXQ7XIj-8" value="Test accuracy" style="ellipse;whiteSpace=wrap;html=1;" vertex="1" parent="1">
          <mxGeometry x="340" y="180" width="100" height="60" as="geometry" />
        </mxCell>
        <mxCell id="AGV1Jh3pytT3GpXQ7XIj-9" value="" style="endArrow=none;html=1;exitX=1;exitY=0.3333333333333333;exitDx=0;exitDy=0;exitPerimeter=0;" edge="1" parent="1" source="AGV1Jh3pytT3GpXQ7XIj-7">
          <mxGeometry width="50" height="50" relative="1" as="geometry">
            <mxPoint x="370" y="250" as="sourcePoint" />
            <mxPoint x="250" y="180" as="targetPoint" />
          </mxGeometry>
        </mxCell>
        <mxCell id="AGV1Jh3pytT3GpXQ7XIj-10" value="" style="endArrow=none;html=1;exitX=1;exitY=0.3333333333333333;exitDx=0;exitDy=0;exitPerimeter=0;" edge="1" parent="1" source="AGV1Jh3pytT3GpXQ7XIj-6">
          <mxGeometry width="50" height="50" relative="1" as="geometry">
            <mxPoint x="370" y="250" as="sourcePoint" />
            <mxPoint x="250" y="180" as="targetPoint" />
          </mxGeometry>
        </mxCell>
        <mxCell id="AGV1Jh3pytT3GpXQ7XIj-11" value="" style="endArrow=none;html=1;entryX=-0.006;entryY=0.222;entryDx=0;entryDy=0;entryPerimeter=0;" edge="1" parent="1" target="AGV1Jh3pytT3GpXQ7XIj-1">
          <mxGeometry width="50" height="50" relative="1" as="geometry">
            <mxPoint x="250" y="180" as="sourcePoint" />
            <mxPoint x="420" y="200" as="targetPoint" />
          </mxGeometry>
        </mxCell>
        <mxCell id="AGV1Jh3pytT3GpXQ7XIj-12" value="" style="endArrow=none;html=1;entryX=-0.006;entryY=0.606;entryDx=0;entryDy=0;entryPerimeter=0;" edge="1" parent="1" target="AGV1Jh3pytT3GpXQ7XIj-1">
          <mxGeometry width="50" height="50" relative="1" as="geometry">
            <mxPoint x="250" y="180" as="sourcePoint" />
            <mxPoint x="420" y="200" as="targetPoint" />
          </mxGeometry>
        </mxCell>
      </root>
    </mxGraphModel>
  </diagram>
</mxfile>
